# Blender v2.80 (sub 74) OBJ File: ''
# www.blender.org
o Br_Lower_Knee_Link
v -0.001446 -0.003000 0.164337
v 0.000000 -0.003000 0.160950
v 0.001446 -0.003000 0.164337
v 0.004053 -0.003000 0.163082
v -0.001446 0.000000 0.164337
v 0.001446 0.000000 0.164337
v -0.004053 -0.003000 0.163082
v -0.001475 -0.003000 0.160555
v -0.004053 0.000000 0.163082
v 0.001475 -0.003000 0.160555
v 0.005856 -0.003000 0.160820
v 0.004053 0.000000 0.163082
v -0.005856 -0.003000 0.160820
v -0.002555 -0.003000 0.159475
v -0.005856 0.000000 0.160820
v 0.000000 0.000000 0.160950
v -0.001475 0.000000 0.160555
v 0.002555 -0.003000 0.159475
v 0.006500 -0.003000 0.158000
v 0.005856 0.000000 0.160820
v -0.006500 -0.003000 0.158000
v -0.002950 -0.003000 0.158000
v -0.006500 0.000000 0.158000
v 0.001475 0.000000 0.160555
v -0.002555 0.000000 0.159475
v 0.002950 -0.003000 0.158000
v 0.002555 0.000000 0.159475
v -0.002950 0.000000 0.158000
v 0.002555 -0.003000 0.156525
v 0.001500 -0.003000 0.149348
v 0.002598 -0.003000 0.148250
v 0.003000 -0.003000 0.071750
v 0.006500 -0.003000 0.003000
v 0.002598 -0.003000 0.073250
v 0.003000 -0.003000 0.146750
v 0.003000 -0.003000 0.089250
v 0.006500 0.000000 0.158000
v 0.002950 0.000000 0.158000
v -0.002555 -0.003000 0.156525
v -0.002555 0.000000 0.156525
v -0.006500 -0.003000 0.003000
v -0.003000 -0.003000 0.089250
v -0.001475 -0.003000 0.155445
v -0.002598 -0.003000 0.148250
v -0.003000 -0.003000 0.146750
v -0.006500 0.000000 0.003000
v -0.000000 -0.003000 0.149750
v 0.001475 -0.003000 0.155445
v 0.002555 0.000000 0.156525
v -0.001475 0.000000 0.155445
v 0.000000 -0.003000 0.155050
v 0.001475 0.000000 0.155445
v -0.001500 -0.003000 0.149348
v 0.000000 0.000000 0.155050
v -0.001500 0.000000 0.149348
v -0.000000 0.000000 0.149750
v 0.001500 0.000000 0.149348
v -0.002598 0.000000 0.148250
v 0.002598 0.000000 0.148250
v -0.003000 0.000000 0.146750
v 0.003000 0.000000 0.146750
v -0.003000 0.000000 0.089250
v -0.000000 -0.003000 0.074750
v 0.001500 -0.003000 0.074348
v 0.002598 -0.003000 0.087750
v 0.003000 0.000000 0.089250
v -0.002598 -0.003000 0.087750
v -0.002598 0.000000 0.087750
v 0.001500 -0.003000 0.086652
v 0.002598 0.000000 0.087750
v -0.003000 -0.003000 0.071750
v -0.001500 -0.003000 0.086652
v -0.001500 0.000000 0.086652
v -0.000000 -0.003000 0.086250
v 0.001500 0.000000 0.086652
v -0.002598 -0.003000 0.073250
v -0.001500 -0.003000 0.074348
v -0.000000 0.000000 0.086250
v -0.001500 0.000000 0.074348
v -0.000000 0.000000 0.074750
v 0.001500 0.000000 0.074348
v -0.002598 0.000000 0.073250
v 0.002598 0.000000 0.073250
v -0.003000 0.000000 0.071750
v 0.003000 -0.003000 0.014250
v 0.003000 0.000000 0.071750
v -0.003000 -0.003000 0.014250
v -0.003000 0.000000 0.014250
v 0.002555 -0.003000 0.004475
v 0.001475 -0.003000 0.005555
v 0.002598 -0.003000 0.012750
v 0.003000 0.000000 0.014250
v -0.002598 -0.003000 0.012750
v -0.002598 0.000000 0.012750
v 0.001500 -0.003000 0.011652
v -0.001475 -0.003000 0.005555
v 0.000000 -0.003000 0.005950
v 0.002598 0.000000 0.012750
v -0.001500 -0.003000 0.011652
v -0.001500 0.000000 0.011652
v -0.002555 -0.003000 0.004475
v -0.000000 -0.003000 0.011250
v 0.001500 0.000000 0.011652
v -0.000000 0.000000 0.011250
v 0.000000 0.000000 0.005950
v -0.001475 0.000000 0.005555
v 0.001475 0.000000 0.005555
v -0.002555 0.000000 0.004475
v 0.002950 -0.003000 0.003000
v 0.002555 0.000000 0.004475
v -0.002950 -0.003000 0.003000
v -0.002950 0.000000 0.003000
v 0.005856 -0.003000 0.000180
v 0.006500 0.000000 0.003000
v 0.002555 -0.003000 0.001525
v 0.002950 0.000000 0.003000
v -0.002555 -0.003000 0.001525
v -0.002555 0.000000 0.001525
v -0.005856 -0.003000 0.000180
v -0.005856 0.000000 0.000180
v 0.001475 -0.003000 0.000445
v 0.004053 -0.003000 -0.002082
v 0.002555 0.000000 0.001525
v -0.001475 -0.003000 0.000445
v -0.001475 0.000000 0.000445
v -0.000000 -0.003000 0.000050
v 0.001446 -0.003000 -0.003337
v 0.001475 0.000000 0.000445
v -0.004053 -0.003000 -0.002082
v -0.000000 0.000000 0.000050
v 0.005856 0.000000 0.000180
v -0.004053 0.000000 -0.002082
v -0.001446 -0.003000 -0.003337
v 0.004053 0.000000 -0.002082
v -0.001446 0.000000 -0.003337
v 0.001446 0.000000 -0.003337
vn 0.0000 -1.0000 0.0000
vn 0.0000 0.0000 1.0000
vn 0.4339 0.0000 0.9010
vn -0.4339 0.0000 0.9010
vn 0.7818 0.0000 0.6235
vn -0.7818 0.0000 0.6235
vn -0.2588 0.0000 -0.9659
vn 0.2588 0.0000 -0.9659
vn 0.9749 0.0000 0.2225
vn -0.9749 0.0000 0.2225
vn -0.7071 0.0000 -0.7071
vn 0.7071 0.0000 -0.7071
vn -0.9659 0.0000 -0.2588
vn 0.9659 0.0000 -0.2588
vn 1.0000 0.0000 0.0000
vn -0.9659 0.0000 0.2588
vn 0.9659 0.0000 0.2588
vn -1.0000 0.0000 0.0000
vn -0.7071 0.0000 0.7071
vn 0.7071 0.0000 0.7071
vn -0.2588 0.0000 0.9659
vn 0.2588 0.0000 0.9659
vn 0.9749 0.0000 -0.2225
vn -0.9749 0.0000 -0.2225
vn 0.7818 0.0000 -0.6235
vn -0.7818 0.0000 -0.6235
vn 0.4339 0.0000 -0.9010
vn -0.4339 0.0000 -0.9010
vn 0.0000 0.0000 -1.0000
vn 0.0000 1.0000 0.0000
s off
f 1//1 2//1 3//1
f 2//1 4//1 3//1
f 5//2 1//2 3//2
f 6//2 5//2 3//2
f 4//3 6//3 3//3
f 7//1 8//1 1//1
f 8//1 2//1 1//1
f 9//4 7//4 1//4
f 5//4 9//4 1//4
f 2//1 10//1 4//1
f 10//1 11//1 4//1
f 12//3 6//3 4//3
f 11//5 12//5 4//5
f 13//1 14//1 7//1
f 14//1 8//1 7//1
f 15//6 13//6 7//6
f 9//6 15//6 7//6
f 16//7 10//7 2//7
f 17//8 16//8 2//8
f 8//8 17//8 2//8
f 10//1 18//1 11//1
f 18//1 19//1 11//1
f 20//5 12//5 11//5
f 19//9 20//9 11//9
f 21//1 22//1 13//1
f 22//1 14//1 13//1
f 23//10 21//10 13//10
f 15//10 23//10 13//10
f 24//11 18//11 10//11
f 16//7 24//7 10//7
f 25//12 17//12 8//12
f 14//12 25//12 8//12
f 26//1 19//1 18//1
f 27//13 26//13 18//13
f 24//11 27//11 18//11
f 28//14 25//14 14//14
f 22//14 28//14 14//14
f 26//1 29//1 19//1
f 30//1 31//1 19//1
f 29//1 30//1 19//1
f 32//1 33//1 19//1
f 34//1 32//1 19//1
f 31//1 35//1 19//1
f 35//1 36//1 19//1
f 36//1 34//1 19//1
f 37//9 20//9 19//9
f 33//15 37//15 19//15
f 38//16 29//16 26//16
f 27//13 38//13 26//13
f 21//1 39//1 22//1
f 40//17 28//17 22//17
f 39//17 40//17 22//17
f 41//1 42//1 21//1
f 43//1 39//1 21//1
f 44//1 43//1 21//1
f 45//1 44//1 21//1
f 42//1 45//1 21//1
f 23//18 46//18 21//18
f 46//18 41//18 21//18
f 47//1 30//1 29//1
f 48//1 47//1 29//1
f 49//19 48//19 29//19
f 38//16 49//16 29//16
f 50//20 40//20 39//20
f 43//20 50//20 39//20
f 51//1 47//1 48//1
f 52//21 51//21 48//21
f 49//19 52//19 48//19
f 53//1 51//1 43//1
f 44//1 53//1 43//1
f 54//22 50//22 43//22
f 51//22 54//22 43//22
f 53//1 47//1 51//1
f 52//21 54//21 51//21
f 53//8 55//8 47//8
f 55//8 56//8 47//8
f 56//7 30//7 47//7
f 56//7 57//7 30//7
f 57//11 31//11 30//11
f 44//12 58//12 53//12
f 58//12 55//12 53//12
f 57//11 59//11 31//11
f 59//13 35//13 31//13
f 45//14 60//14 44//14
f 60//14 58//14 44//14
f 59//13 61//13 35//13
f 61//18 36//18 35//18
f 62//15 60//15 45//15
f 42//15 62//15 45//15
f 63//1 64//1 36//1
f 65//1 63//1 36//1
f 64//1 34//1 36//1
f 66//16 65//16 36//16
f 61//18 66//18 36//18
f 41//1 67//1 42//1
f 67//17 68//17 42//17
f 68//17 62//17 42//17
f 69//1 63//1 65//1
f 66//16 70//16 65//16
f 70//19 69//19 65//19
f 71//1 72//1 67//1
f 41//1 71//1 67//1
f 72//20 73//20 67//20
f 73//20 68//20 67//20
f 74//1 63//1 69//1
f 70//19 75//19 69//19
f 75//21 74//21 69//21
f 76//1 77//1 72//1
f 77//1 74//1 72//1
f 71//1 76//1 72//1
f 74//22 78//22 72//22
f 78//22 73//22 72//22
f 77//1 63//1 74//1
f 75//21 78//21 74//21
f 77//8 79//8 63//8
f 79//8 80//8 63//8
f 80//7 64//7 63//7
f 80//7 81//7 64//7
f 81//11 34//11 64//11
f 76//12 82//12 77//12
f 82//12 79//12 77//12
f 81//11 83//11 34//11
f 83//13 32//13 34//13
f 71//14 84//14 76//14
f 84//14 82//14 76//14
f 85//1 33//1 32//1
f 86//18 85//18 32//18
f 83//13 86//13 32//13
f 41//1 87//1 71//1
f 88//15 84//15 71//15
f 87//15 88//15 71//15
f 89//1 33//1 85//1
f 90//1 89//1 85//1
f 91//1 90//1 85//1
f 92//16 91//16 85//16
f 86//18 92//18 85//18
f 41//1 93//1 87//1
f 93//17 94//17 87//17
f 94//17 88//17 87//17
f 95//1 96//1 91//1
f 97//1 90//1 91//1
f 96//1 97//1 91//1
f 92//16 98//16 91//16
f 98//19 95//19 91//19
f 41//1 99//1 93//1
f 99//20 100//20 93//20
f 100//20 94//20 93//20
f 101//1 96//1 95//1
f 102//1 101//1 95//1
f 98//19 103//19 95//19
f 103//21 102//21 95//21
f 101//1 102//1 99//1
f 41//1 101//1 99//1
f 102//22 104//22 99//22
f 104//22 100//22 99//22
f 103//21 104//21 102//21
f 105//7 90//7 97//7
f 106//8 105//8 97//8
f 96//8 106//8 97//8
f 107//11 89//11 90//11
f 105//7 107//7 90//7
f 108//12 106//12 96//12
f 101//12 108//12 96//12
f 109//1 33//1 89//1
f 110//13 109//13 89//13
f 107//11 110//11 89//11
f 41//1 111//1 101//1
f 112//14 108//14 101//14
f 111//14 112//14 101//14
f 109//1 113//1 33//1
f 114//15 37//15 33//15
f 113//23 114//23 33//23
f 115//1 113//1 109//1
f 116//16 115//16 109//16
f 110//13 116//13 109//13
f 41//1 117//1 111//1
f 118//17 112//17 111//17
f 117//17 118//17 111//17
f 119//1 117//1 41//1
f 120//24 119//24 41//24
f 46//24 120//24 41//24
f 121//1 122//1 115//1
f 122//1 113//1 115//1
f 123//19 121//19 115//19
f 116//16 123//16 115//16
f 119//1 124//1 117//1
f 125//20 118//20 117//20
f 124//20 125//20 117//20
f 126//1 127//1 121//1
f 127//1 122//1 121//1
f 128//21 126//21 121//21
f 123//19 128//19 121//19
f 129//1 126//1 124//1
f 119//1 129//1 124//1
f 130//22 125//22 124//22
f 126//22 130//22 124//22
f 131//23 114//23 113//23
f 122//25 131//25 113//25
f 132//26 129//26 119//26
f 120//26 132//26 119//26
f 129//1 133//1 126//1
f 133//1 127//1 126//1
f 128//21 130//21 126//21
f 134//25 131//25 122//25
f 127//27 134//27 122//27
f 135//28 133//28 129//28
f 132//28 135//28 129//28
f 136//27 134//27 127//27
f 133//29 136//29 127//29
f 135//29 136//29 133//29
f 16//30 5//30 6//30
f 24//30 16//30 6//30
f 12//30 24//30 6//30
f 16//30 9//30 5//30
f 27//30 24//30 12//30
f 20//30 27//30 12//30
f 16//30 17//30 9//30
f 17//30 15//30 9//30
f 38//30 27//30 20//30
f 37//30 38//30 20//30
f 17//30 25//30 15//30
f 25//30 23//30 15//30
f 28//30 23//30 25//30
f 66//30 61//30 37//30
f 114//30 66//30 37//30
f 49//30 38//30 37//30
f 61//30 49//30 37//30
f 40//30 23//30 28//30
f 58//30 60//30 23//30
f 60//30 62//30 23//30
f 62//30 46//30 23//30
f 40//30 58//30 23//30
f 61//30 52//30 49//30
f 50//30 58//30 40//30
f 57//30 54//30 52//30
f 61//30 59//30 52//30
f 59//30 57//30 52//30
f 54//30 56//30 50//30
f 55//30 58//30 50//30
f 56//30 55//30 50//30
f 57//30 56//30 54//30
f 114//30 70//30 66//30
f 68//30 46//30 62//30
f 114//30 86//30 70//30
f 86//30 75//30 70//30
f 84//30 46//30 68//30
f 73//30 84//30 68//30
f 86//30 78//30 75//30
f 82//30 84//30 73//30
f 78//30 80//30 73//30
f 80//30 79//30 73//30
f 79//30 82//30 73//30
f 86//30 83//30 78//30
f 83//30 81//30 78//30
f 81//30 80//30 78//30
f 114//30 92//30 86//30
f 88//30 46//30 84//30
f 114//30 98//30 92//30
f 94//30 46//30 88//30
f 114//30 103//30 98//30
f 100//30 46//30 94//30
f 114//30 110//30 103//30
f 110//30 104//30 103//30
f 104//30 105//30 100//30
f 105//30 106//30 100//30
f 106//30 46//30 100//30
f 110//30 107//30 104//30
f 107//30 105//30 104//30
f 108//30 46//30 106//30
f 114//30 116//30 110//30
f 112//30 46//30 108//30
f 131//30 123//30 114//30
f 123//30 116//30 114//30
f 118//30 120//30 112//30
f 120//30 46//30 112//30
f 131//30 128//30 123//30
f 125//30 132//30 118//30
f 132//30 120//30 118//30
f 134//30 130//30 128//30
f 131//30 134//30 128//30
f 130//30 135//30 125//30
f 135//30 132//30 125//30
f 134//30 136//30 130//30
f 136//30 135//30 130//30
