# Blender v2.80 (sub 74) OBJ File: ''
# www.blender.org
o Fl_Lower_Knee_Link
v 0.004053 -0.160082 0.001500
v 0.001475 -0.157555 0.001500
v 0.001446 -0.161337 0.001500
v -0.000000 -0.157950 0.001500
v -0.001446 -0.161337 0.001500
v 0.004053 -0.160082 -0.001500
v 0.001446 -0.161337 -0.001500
v -0.004053 -0.160082 0.001500
v -0.001446 -0.161337 -0.001500
v -0.000000 -0.157950 -0.001500
v -0.001475 -0.157555 -0.001500
v -0.004053 -0.160082 -0.001500
v 0.005856 -0.157820 0.001500
v 0.002555 -0.156475 0.001500
v 0.005856 -0.157820 -0.001500
v -0.001475 -0.157555 0.001500
v -0.005856 -0.157820 0.001500
v 0.001475 -0.157555 -0.001500
v -0.002555 -0.156475 -0.001500
v -0.005856 -0.157820 -0.001500
v 0.006500 -0.155000 0.001500
v 0.002950 -0.155000 0.001500
v 0.006500 -0.155000 -0.001500
v -0.002555 -0.156475 0.001500
v -0.006500 -0.155000 0.001500
v 0.002555 -0.156475 -0.001500
v -0.002950 -0.155000 -0.001500
v -0.006500 -0.155000 -0.001500
v 0.002950 -0.155000 -0.001500
v -0.002950 -0.155000 0.001500
v 0.003000 -0.086250 0.001500
v 0.003000 -0.143750 0.001500
v 0.006500 0.000000 0.001500
v 0.002555 -0.153525 0.001500
v 0.006500 0.000000 -0.001500
v 0.002555 -0.153525 -0.001500
v -0.002555 -0.153525 0.001500
v -0.003000 -0.068750 0.001500
v -0.006500 0.000000 0.001500
v -0.002598 -0.070250 0.001500
v -0.001500 -0.146348 0.001500
v -0.002598 -0.145250 0.001500
v -0.003000 -0.143750 0.001500
v -0.003000 -0.086250 0.001500
v 0.002598 -0.145250 -0.001500
v 0.003000 -0.086250 -0.001500
v 0.003000 -0.143750 -0.001500
v -0.002555 -0.153525 -0.001500
v -0.003000 -0.143750 -0.001500
v -0.003000 -0.086250 -0.001500
v -0.006500 0.000000 -0.001500
v 0.001475 -0.152445 0.001500
v 0.001475 -0.152445 -0.001500
v -0.001475 -0.152445 0.001500
v 0.002598 -0.145250 0.001500
v 0.001500 -0.146348 0.001500
v 0.000000 -0.146750 0.001500
v -0.001475 -0.152445 -0.001500
v -0.000000 -0.152050 0.001500
v -0.000000 -0.152050 -0.001500
v 0.000000 -0.146750 -0.001500
v 0.001500 -0.146348 -0.001500
v -0.002598 -0.145250 -0.001500
v -0.001500 -0.146348 -0.001500
v 0.002598 -0.084750 0.001500
v 0.002598 -0.084750 -0.001500
v 0.000000 -0.071750 0.001500
v -0.001500 -0.071348 0.001500
v -0.002598 -0.084750 0.001500
v -0.003000 -0.068750 -0.001500
v -0.002598 -0.070250 -0.001500
v -0.002598 -0.084750 -0.001500
v 0.003000 -0.068750 0.001500
v 0.001500 -0.083652 0.001500
v 0.001500 -0.083652 -0.001500
v 0.001500 -0.071348 0.001500
v -0.001500 -0.083652 0.001500
v 0.003000 -0.068750 -0.001500
v -0.001500 -0.083652 -0.001500
v 0.002598 -0.070250 0.001500
v 0.000000 -0.083250 0.001500
v 0.000000 -0.083250 -0.001500
v 0.001500 -0.071348 -0.001500
v 0.002598 -0.070250 -0.001500
v 0.000000 -0.071750 -0.001500
v -0.001500 -0.071348 -0.001500
v 0.003000 -0.011250 0.001500
v 0.003000 -0.011250 -0.001500
v -0.003000 -0.011250 0.001500
v -0.003000 -0.011250 -0.001500
v 0.002598 -0.009750 0.001500
v 0.002598 -0.009750 -0.001500
v -0.002598 -0.009750 0.001500
v -0.002598 -0.009750 -0.001500
v 0.002950 0.000000 0.001500
v 0.001500 -0.008652 0.001500
v 0.001500 -0.008652 -0.001500
v -0.001500 -0.008652 0.001500
v -0.002950 0.000000 -0.001500
v -0.001500 -0.008652 -0.001500
v 0.002555 -0.001475 0.001500
v 0.001475 -0.002555 0.001500
v 0.000000 -0.008250 0.001500
v 0.000000 -0.008250 -0.001500
v -0.000000 -0.002950 0.001500
v -0.001475 -0.002555 0.001500
v -0.000000 -0.002950 -0.001500
v 0.001475 -0.002555 -0.001500
v -0.002555 -0.001475 -0.001500
v -0.001475 -0.002555 -0.001500
v 0.002555 -0.001475 -0.001500
v -0.002555 -0.001475 0.001500
v 0.002950 -0.000000 -0.001500
v -0.002950 0.000000 0.001500
v 0.002555 0.001475 -0.001500
v 0.002555 0.001475 0.001500
v 0.005856 0.002820 0.001500
v 0.005856 0.002820 -0.001500
v -0.002555 0.001475 0.001500
v -0.005856 0.002820 0.001500
v -0.002555 0.001475 -0.001500
v -0.005856 0.002820 -0.001500
v 0.001475 0.002555 0.001500
v 0.001475 0.002555 -0.001500
v -0.001475 0.002555 0.001500
v -0.004053 0.005082 0.001500
v 0.004053 0.005082 -0.001500
v -0.001475 0.002555 -0.001500
v 0.004053 0.005082 0.001500
v 0.000000 0.002950 0.001500
v 0.000000 0.002950 -0.001500
v -0.001446 0.006337 0.001500
v 0.001446 0.006337 -0.001500
v -0.004053 0.005082 -0.001500
v 0.001446 0.006337 0.001500
v -0.001446 0.006337 -0.001500
vn 0.0000 0.0000 1.0000
vn 0.4339 -0.9010 0.0000
vn 0.0000 -1.0000 0.0000
vn -0.4339 -0.9010 0.0000
vn 0.0000 0.0000 -1.0000
vn 0.7818 -0.6235 0.0000
vn -0.7818 -0.6235 0.0000
vn 0.2588 0.9659 0.0000
vn -0.2588 0.9659 0.0000
vn 0.9749 -0.2225 0.0000
vn -0.9749 -0.2225 0.0000
vn -0.7071 0.7071 0.0000
vn 0.7071 0.7071 0.0000
vn -0.9659 0.2588 0.0000
vn 0.9659 0.2588 0.0000
vn 1.0000 0.0000 0.0000
vn -0.9659 -0.2588 0.0000
vn 0.9659 -0.2588 0.0000
vn -1.0000 0.0000 0.0000
vn -0.7071 -0.7071 0.0000
vn 0.7071 -0.7071 0.0000
vn -0.2588 -0.9659 0.0000
vn 0.2588 -0.9659 0.0000
vn 0.9749 0.2225 0.0000
vn -0.9749 0.2225 0.0000
vn 0.7818 0.6235 0.0000
vn -0.7818 0.6235 0.0000
vn 0.4339 0.9010 0.0000
vn -0.4339 0.9010 0.0000
vn 0.0000 1.0000 0.0000
s off
f 1//1 2//1 3//1
f 2//1 4//1 3//1
f 4//1 5//1 3//1
f 6//2 1//2 3//2
f 7//2 6//2 3//2
f 5//3 7//3 3//3
f 4//1 8//1 5//1
f 9//3 7//3 5//3
f 8//4 9//4 5//4
f 9//5 10//5 7//5
f 10//5 6//5 7//5
f 11//5 10//5 9//5
f 12//5 11//5 9//5
f 8//4 12//4 9//4
f 13//1 14//1 1//1
f 14//1 2//1 1//1
f 15//6 13//6 1//6
f 6//6 15//6 1//6
f 4//1 16//1 8//1
f 16//1 17//1 8//1
f 17//7 12//7 8//7
f 10//5 18//5 6//5
f 18//5 15//5 6//5
f 19//5 11//5 12//5
f 20//5 19//5 12//5
f 17//7 20//7 12//7
f 10//8 16//8 4//8
f 18//9 10//9 4//9
f 2//9 18//9 4//9
f 11//8 16//8 10//8
f 21//1 22//1 13//1
f 22//1 14//1 13//1
f 23//10 21//10 13//10
f 15//10 23//10 13//10
f 16//1 24//1 17//1
f 24//1 25//1 17//1
f 25//11 20//11 17//11
f 18//5 26//5 15//5
f 26//5 23//5 15//5
f 27//5 19//5 20//5
f 28//5 27//5 20//5
f 25//11 28//11 20//11
f 26//12 18//12 2//12
f 14//12 26//12 2//12
f 11//13 24//13 16//13
f 19//13 24//13 11//13
f 29//14 26//14 14//14
f 22//14 29//14 14//14
f 30//1 25//1 24//1
f 19//15 30//15 24//15
f 29//5 23//5 26//5
f 27//15 30//15 19//15
f 31//1 32//1 21//1
f 33//1 31//1 21//1
f 32//1 34//1 21//1
f 34//1 22//1 21//1
f 23//16 35//16 21//16
f 35//16 33//16 21//16
f 36//17 29//17 22//17
f 34//17 36//17 22//17
f 37//1 25//1 30//1
f 27//18 37//18 30//18
f 38//1 39//1 25//1
f 40//1 38//1 25//1
f 41//1 42//1 25//1
f 37//1 41//1 25//1
f 42//1 43//1 25//1
f 43//1 44//1 25//1
f 44//1 40//1 25//1
f 39//19 28//19 25//19
f 29//5 36//5 23//5
f 36//5 45//5 23//5
f 46//5 35//5 23//5
f 47//5 46//5 23//5
f 45//5 47//5 23//5
f 28//5 48//5 27//5
f 48//18 37//18 27//18
f 49//5 48//5 28//5
f 50//5 49//5 28//5
f 51//5 50//5 28//5
f 39//19 51//19 28//19
f 32//1 52//1 34//1
f 53//20 36//20 34//20
f 52//20 53//20 34//20
f 54//1 55//1 37//1
f 55//1 56//1 37//1
f 56//1 57//1 37//1
f 57//1 41//1 37//1
f 48//21 54//21 37//21
f 53//5 45//5 36//5
f 49//5 58//5 48//5
f 58//21 54//21 48//21
f 55//1 59//1 52//1
f 32//1 55//1 52//1
f 60//22 53//22 52//22
f 59//22 60//22 52//22
f 59//1 55//1 54//1
f 58//23 59//23 54//23
f 60//5 61//5 53//5
f 61//5 62//5 53//5
f 62//5 45//5 53//5
f 49//5 63//5 58//5
f 63//5 64//5 58//5
f 64//5 60//5 58//5
f 60//23 59//23 58//23
f 64//5 61//5 60//5
f 56//9 62//9 57//9
f 62//9 61//9 57//9
f 61//8 41//8 57//8
f 64//8 41//8 61//8
f 55//12 45//12 56//12
f 45//12 62//12 56//12
f 64//13 42//13 41//13
f 63//13 42//13 64//13
f 32//14 47//14 55//14
f 47//14 45//14 55//14
f 63//15 43//15 42//15
f 49//15 43//15 63//15
f 46//19 47//19 32//19
f 31//19 46//19 32//19
f 49//16 44//16 43//16
f 50//16 44//16 49//16
f 33//1 65//1 31//1
f 65//17 66//17 31//17
f 66//17 46//17 31//17
f 67//1 68//1 44//1
f 69//1 67//1 44//1
f 68//1 40//1 44//1
f 50//18 69//18 44//18
f 66//5 35//5 46//5
f 70//5 71//5 50//5
f 51//5 70//5 50//5
f 71//5 72//5 50//5
f 72//18 69//18 50//18
f 33//1 73//1 65//1
f 73//1 74//1 65//1
f 74//20 75//20 65//20
f 75//20 66//20 65//20
f 76//1 67//1 69//1
f 77//1 76//1 69//1
f 72//21 77//21 69//21
f 75//5 78//5 66//5
f 78//5 35//5 66//5
f 71//5 79//5 72//5
f 79//21 77//21 72//21
f 73//1 80//1 74//1
f 80//1 81//1 74//1
f 81//22 82//22 74//22
f 82//22 75//22 74//22
f 81//1 76//1 77//1
f 79//23 81//23 77//23
f 83//5 84//5 75//5
f 84//5 78//5 75//5
f 85//5 83//5 75//5
f 82//5 85//5 75//5
f 86//5 82//5 79//5
f 71//5 86//5 79//5
f 82//23 81//23 79//23
f 80//1 76//1 81//1
f 86//5 85//5 82//5
f 76//9 83//9 67//9
f 83//9 85//9 67//9
f 85//8 68//8 67//8
f 86//8 68//8 85//8
f 80//12 84//12 76//12
f 84//12 83//12 76//12
f 86//13 40//13 68//13
f 71//13 40//13 86//13
f 73//14 78//14 80//14
f 78//14 84//14 80//14
f 71//15 38//15 40//15
f 70//15 38//15 71//15
f 33//1 87//1 73//1
f 88//19 78//19 73//19
f 87//19 88//19 73//19
f 89//1 39//1 38//1
f 70//16 89//16 38//16
f 88//5 35//5 78//5
f 51//5 90//5 70//5
f 90//16 89//16 70//16
f 33//1 91//1 87//1
f 91//17 92//17 87//17
f 92//17 88//17 87//17
f 93//1 39//1 89//1
f 90//18 93//18 89//18
f 92//5 35//5 88//5
f 51//5 94//5 90//5
f 94//18 93//18 90//18
f 95//1 96//1 91//1
f 33//1 95//1 91//1
f 96//20 97//20 91//20
f 97//20 92//20 91//20
f 98//1 39//1 93//1
f 94//21 98//21 93//21
f 97//5 35//5 92//5
f 99//5 100//5 94//5
f 51//5 99//5 94//5
f 100//21 98//21 94//21
f 95//1 101//1 96//1
f 101//1 102//1 96//1
f 102//1 103//1 96//1
f 103//22 104//22 96//22
f 104//22 97//22 96//22
f 103//1 105//1 98//1
f 105//1 106//1 98//1
f 106//1 39//1 98//1
f 100//23 103//23 98//23
f 104//5 107//5 97//5
f 107//5 108//5 97//5
f 108//5 35//5 97//5
f 99//5 109//5 100//5
f 109//5 110//5 100//5
f 110//5 104//5 100//5
f 104//23 103//23 100//23
f 102//1 105//1 103//1
f 110//5 107//5 104//5
f 107//8 106//8 105//8
f 108//9 107//9 105//9
f 102//9 108//9 105//9
f 110//8 106//8 107//8
f 111//12 108//12 102//12
f 101//12 111//12 102//12
f 112//1 39//1 106//1
f 110//13 112//13 106//13
f 111//5 35//5 108//5
f 109//13 112//13 110//13
f 113//14 111//14 101//14
f 95//14 113//14 101//14
f 114//1 39//1 112//1
f 109//15 114//15 112//15
f 113//5 35//5 111//5
f 99//15 114//15 109//15
f 115//17 113//17 95//17
f 116//17 115//17 95//17
f 116//1 95//1 33//1
f 117//1 116//1 33//1
f 118//24 117//24 33//24
f 35//24 118//24 33//24
f 119//1 120//1 114//1
f 120//1 39//1 114//1
f 113//5 118//5 35//5
f 115//5 118//5 113//5
f 51//5 121//5 99//5
f 122//5 121//5 51//5
f 120//25 51//25 39//25
f 120//25 122//25 51//25
f 99//18 119//18 114//18
f 121//18 119//18 99//18
f 117//1 123//1 116//1
f 124//20 115//20 116//20
f 123//20 124//20 116//20
f 125//1 126//1 119//1
f 126//1 120//1 119//1
f 121//21 125//21 119//21
f 124//5 127//5 115//5
f 127//5 118//5 115//5
f 122//5 128//5 121//5
f 128//21 125//21 121//21
f 117//1 129//1 123//1
f 129//1 130//1 123//1
f 131//22 124//22 123//22
f 130//22 131//22 123//22
f 130//1 132//1 125//1
f 132//1 126//1 125//1
f 128//23 130//23 125//23
f 131//5 133//5 124//5
f 133//5 127//5 124//5
f 122//5 134//5 128//5
f 134//5 131//5 128//5
f 131//23 130//23 128//23
f 127//26 129//26 117//26
f 118//26 127//26 117//26
f 126//27 122//27 120//27
f 126//27 134//27 122//27
f 129//1 135//1 130//1
f 135//1 132//1 130//1
f 134//5 136//5 131//5
f 136//5 133//5 131//5
f 133//28 135//28 129//28
f 127//28 133//28 129//28
f 132//29 134//29 126//29
f 132//29 136//29 134//29
f 136//30 132//30 135//30
f 133//30 136//30 135//30
